<svg width="20" height="20" viewBox="0 0 20 20" fill="none" xmlns="http://www.w3.org/2000/svg">
<path d="M15.0895 2H4.91048C3.30306 2 2 3.30306 2 4.91048V15.0895C2 16.6969 3.30306 18 4.91048 18H15.0895C16.6969 18 18 16.6969 18 15.0895V4.91048C18 3.30306 16.6969 2 15.0895 2Z" stroke="black" stroke-width="1.25" stroke-miterlimit="10" stroke-linejoin="round"/>
<path d="M10.0093 13.6436C12.0164 13.6436 13.6436 12.0164 13.6436 10.0093C13.6436 8.00213 12.0164 6.375 10.0093 6.375C8.00213 6.375 6.375 8.00213 6.375 10.0093C6.375 12.0164 8.00213 13.6436 10.0093 13.6436Z" stroke="black" stroke-width="1.25" stroke-miterlimit="10" stroke-linejoin="round"/>
<path d="M14.7145 6.37436C15.3163 6.37436 15.804 5.88656 15.804 5.28484C15.804 4.68311 15.3163 4.19531 14.7145 4.19531C14.1128 4.19531 13.625 4.68311 13.625 5.28484C13.625 5.88656 14.1128 6.37436 14.7145 6.37436Z" fill="black"/>
</svg>
