<svg width="24" height="24" viewBox="0 0 24 24" fill="none" xmlns="http://www.w3.org/2000/svg">
<path d="M9.42555 9.59375H14.2154C15.0541 9.59375 15.8846 9.75894 16.6594 10.0799C17.4343 10.4008 18.1383 10.8713 18.7313 11.4643C19.3244 12.0573 19.7948 12.7614 20.1158 13.5362C20.4367 14.3111 20.6019 15.1416 20.6019 15.9802V19.9676H3.03906V15.9719C3.04128 14.2795 3.71512 12.6572 4.91257 11.4614C6.11003 10.2655 7.7332 9.59375 9.42555 9.59375Z" stroke="black" stroke-width="1.25" stroke-miterlimit="10"/>
<path d="M4.78906 11.5859C5.38497 12.2181 6.10405 12.7215 6.90196 13.0651C7.69987 13.4087 8.55971 13.5852 9.42846 13.5838H14.21C15.0787 13.5852 15.9386 13.4087 16.7365 13.0651C17.5344 12.7215 18.2535 12.2181 18.8494 11.5859" stroke="black" stroke-width="1.25" stroke-miterlimit="10"/>
<path d="M7.03125 10.3865V8.78987C7.03346 7.52019 7.53882 6.30316 8.43661 5.40536C9.33441 4.50756 10.5514 4.00221 11.8211 4C13.0908 4.00221 14.3078 4.50756 15.2056 5.40536C16.1034 6.30316 16.6088 7.52019 16.611 8.78987V10.3865" stroke="black" stroke-width="1.25" stroke-miterlimit="10"/>
<path d="M6.92886 19.9673C6.99953 19.6944 7.03327 19.4133 7.02917 19.1314C7.02917 18.2845 6.69274 17.4723 6.09389 16.8734C5.49504 16.2746 4.68283 15.9382 3.83593 15.9382C3.5534 15.932 3.27156 15.9686 3 16.0468" stroke="black" stroke-width="1.25" stroke-miterlimit="10"/>
<path d="M20.5971 16.0775C20.339 16.0034 20.0715 15.9668 19.803 15.9688C18.9561 15.9688 18.1438 16.3053 17.545 16.9041C16.9461 17.503 16.6097 18.3152 16.6097 19.1621C16.6056 19.4439 16.6393 19.7251 16.71 19.998" stroke="black" stroke-width="1.25" stroke-miterlimit="10"/>
</svg>
