<svg width="24" height="24" viewBox="0 0 24 24" fill="none" xmlns="http://www.w3.org/2000/svg">
<path d="M4.46831 12.9304L4.17878 12.6408C3.73694 12.2007 3.3861 11.6779 3.14632 11.1022C2.90653 10.5265 2.78248 9.90918 2.78126 9.28553C2.77879 8.02602 3.27676 6.81712 4.16562 5.92477C5.05449 5.03241 6.26143 4.52971 7.52094 4.52724C8.78045 4.52477 9.98935 5.02274 10.8817 5.91161L12.0047 7.05215L13.1277 5.91161C13.5637 5.4559 14.0863 5.09184 14.6649 4.84077C15.2435 4.58971 15.8664 4.45669 16.497 4.44952C17.1277 4.44236 17.7534 4.56118 18.3376 4.79904C18.9217 5.03689 19.4524 5.38898 19.8987 5.83466C20.345 6.28033 20.6978 6.81063 20.9364 7.39445C21.175 7.97827 21.2946 8.60385 21.2883 9.23452C21.282 9.86518 21.1498 10.4882 20.8994 11.0671C20.6491 11.646 20.2858 12.1691 19.8306 12.6058L19.5411 12.8953L12.0047 20.4492L6.80205 15.2466L4.46831 12.9304Z" stroke="black" stroke-width="1.25" stroke-miterlimit="10"/>
</svg>
