<svg width="14" height="15" viewBox="0 0 14 15" fill="none" xmlns="http://www.w3.org/2000/svg">
<path d="M5.39354 6.73268C4.55228 5.55725 3.38134 4.52778 2.05436 3.80803C1.89276 3.7202 1.71565 3.66551 1.53317 3.64709C1.35069 3.62868 1.16642 3.64691 0.990898 3.70073C0.815376 3.75455 0.65205 3.84291 0.510262 3.96075C0.368474 4.0786 0.251007 4.22361 0.164583 4.3875C-0.00965844 4.71837 -0.0472765 5.10575 0.0599802 5.46468C0.167237 5.82361 0.410611 6.12479 0.736717 6.30213C2.78413 7.41215 4.10524 9.52949 4.25994 11.9766V11.9709C4.23436 11.6978 4.28442 11.4229 4.40451 11.1771C4.42105 11.1422 4.44052 11.1044 4.46532 11.0636C5.10539 9.99409 5.44318 8.76698 5.44182 7.51621C5.44182 7.25323 5.42315 6.99214 5.39354 6.73268Z" fill="#3158A6"/>
<path d="M13.4992 4.07007C13.2522 2.97343 12.8869 1.90764 12.4099 0.891908C12.2836 0.625438 12.0858 0.400421 11.8391 0.242667C11.5925 0.0849117 11.3069 0.000807485 11.0152 0C10.7855 0 10.5625 0.0508118 10.3537 0.151895C9.58577 0.522172 9.25822 1.45949 9.62364 2.23572C10.4073 3.91007 10.7946 5.67875 10.7946 7.51635C10.7946 9.35314 10.4052 11.1205 9.63671 12.7675C9.62524 12.7921 9.49081 13.0835 9.49081 13.4205C9.49042 13.5426 9.50357 13.6644 9.53002 13.7835C9.58115 14.0144 9.6836 14.2304 9.82957 14.4152C9.97554 14.5999 10.1612 14.7484 10.3724 14.8495C10.5781 14.9487 10.8031 15.0001 11.0309 15C11.3072 14.999 11.5783 14.9233 11.8161 14.7806C12.0538 14.638 12.2497 14.4336 12.3835 14.1886C12.6913 13.6038 13.0023 12.8335 13.2736 11.8437C13.3587 11.5456 13.4307 11.2656 13.4979 10.9626C13.7521 9.83196 13.8804 8.67599 13.8804 7.51635C13.8796 6.35684 13.7517 5.201 13.4992 4.07007Z" fill="#449F27"/>
<path d="M6.9831 2.43381C6.95548 2.38861 6.92547 2.34494 6.89322 2.303C6.75692 2.12212 6.58156 1.97527 6.38058 1.8737C6.1796 1.77213 5.95833 1.71854 5.73375 1.71704C5.49796 1.71704 5.37713 1.7465 5.20776 1.81515C5.03358 1.88515 4.84927 1.98137 4.68257 2.15975C4.53473 2.31612 4.4208 2.50208 4.34809 2.70571C4.20832 3.08301 4.22486 3.57924 4.46892 3.97654C4.9813 4.81088 5.28271 5.75792 5.3934 6.73281C5.42301 6.99227 5.44114 7.25363 5.44114 7.51688C5.44114 8.77149 5.10373 9.99827 4.46465 11.064C4.30112 11.3371 4.22925 11.6566 4.2598 11.9745C4.28056 12.2059 4.35451 12.4291 4.47573 12.6264C4.59694 12.8236 4.76205 12.9893 4.95783 13.1102C5.06399 13.1745 5.17681 13.224 5.29364 13.26C5.60558 13.3579 5.94091 13.347 6.24605 13.2292C6.5512 13.1113 6.80854 12.8932 6.97697 12.6097C7.89609 11.0743 8.38115 9.3126 8.37916 7.51688C8.38037 5.72517 7.89757 3.9673 6.9831 2.43381Z" fill="#F8002E"/>
<path d="M9.63598 12.7683C10.4047 11.121 10.7941 9.35363 10.7941 7.51657C10.7941 6.88494 10.7517 6.42466 10.7192 6.13249C9.7088 4.4949 8.24392 3.03109 6.52832 1.95972C6.52939 1.95999 6.56806 1.98647 6.571 1.9881C6.68942 2.07431 6.78971 2.16567 6.89427 2.3027C6.92641 2.34482 6.95641 2.38857 6.98416 2.43378C7.89859 3.96709 8.38138 5.72477 8.38022 7.5163C8.38022 7.73036 8.37329 7.94469 8.35995 8.15766C9.09292 9.57039 9.49248 11.1766 9.49248 12.8607C9.49248 12.994 9.49488 13.2102 9.49141 13.3675C9.50099 13.1873 9.53927 13.0099 9.60477 12.8421C9.61464 12.8172 9.62451 12.7921 9.63598 12.7683Z" fill="#FBBB08"/>
</svg>
