<svg width="25" height="15" viewBox="0 0 25 15" fill="none" xmlns="http://www.w3.org/2000/svg">
<path fill-rule="evenodd" clip-rule="evenodd" d="M12.4632 13.0558C13.7766 14.266 15.5403 15 17.4587 15C21.5789 15 24.9136 11.6395 24.9136 7.50636C24.9136 3.36063 21.5789 0 17.4587 0C15.5403 0 13.7766 0.733892 12.4632 1.94421C10.9568 3.32183 10.0039 5.30469 10.0039 7.50636C10.0041 9.70804 10.9568 11.691 12.4632 13.0558Z" fill="#E9B040"/>
<path fill-rule="evenodd" clip-rule="evenodd" d="M23.9229 11.6781C23.9229 11.5493 24.0259 11.4464 24.1546 11.4464C24.2961 11.4464 24.399 11.5495 24.399 11.6781C24.399 11.8199 24.2959 11.9228 24.1546 11.9228C24.0259 11.9228 23.9229 11.8199 23.9229 11.6781ZM24.1546 11.8715C24.2576 11.8715 24.3475 11.7812 24.3475 11.6783C24.3475 11.5754 24.2574 11.4981 24.1546 11.4981C24.0642 11.4981 23.9744 11.5754 23.9744 11.6783C23.9744 11.7812 24.0644 11.8715 24.1546 11.8715ZM24.1288 11.7942H24.0773V11.5752H24.1673C24.1803 11.5752 24.2061 11.5752 24.2188 11.5883C24.2446 11.601 24.2446 11.614 24.2446 11.6398C24.2446 11.6655 24.2318 11.6913 24.2061 11.6913L24.2576 11.7943H24.193L24.1673 11.704H24.1288V11.7942V11.6654H24.1803C24.193 11.6654 24.193 11.6523 24.193 11.6396C24.193 11.6266 24.193 11.6266 24.1803 11.6139H24.1288V11.7942Z" fill="#E9B040"/>
<path fill-rule="evenodd" clip-rule="evenodd" d="M14.871 6.70822C14.8453 6.43788 14.7938 6.18042 14.7422 5.90993H10.1843C10.2358 5.63959 10.3131 5.38212 10.3903 5.12451H14.5234C14.4337 4.85346 14.3306 4.58704 14.2144 4.32622H10.7123C10.8411 4.05349 10.9829 3.78709 11.1372 3.52792H13.7768C13.607 3.25294 13.4177 2.99047 13.2104 2.74251H11.7038C11.9368 2.45791 12.1907 2.19108 12.4634 1.94421C11.1373 0.746772 9.38618 0 7.45484 0C3.34759 0 0 3.36063 0 7.50636C0 11.6395 3.34759 15 7.45484 15C9.38618 15 11.1372 14.266 12.4634 13.0558C12.732 12.8132 12.9816 12.5506 13.2104 12.2702H11.7038C11.4977 12.0128 11.3175 11.7553 11.1372 11.4719H13.7768C13.9428 11.2173 14.0891 10.9505 14.2146 10.6736H10.7123C10.5963 10.4162 10.4806 10.1587 10.3903 9.88806H14.5234C14.6134 9.6306 14.678 9.36041 14.7421 9.08977C14.7936 8.83231 14.8451 8.56212 14.8709 8.29148C14.897 8.03044 14.9099 7.76825 14.9097 7.50591C14.9097 7.23602 14.8968 6.96568 14.871 6.70822Z" fill="#CC2131"/>
<path fill-rule="evenodd" clip-rule="evenodd" d="M23.9229 9.24455C23.9229 9.10302 24.0259 9.00012 24.1546 9.00012C24.2961 9.00012 24.399 9.10317 24.399 9.24455C24.399 9.37336 24.2959 9.48928 24.1546 9.48928C24.0259 9.48928 23.9229 9.3732 23.9229 9.24455ZM24.1546 9.42473C24.2576 9.42473 24.3475 9.34744 24.3475 9.24455C24.3475 9.14166 24.2574 9.06437 24.1546 9.06437C24.0642 9.06437 23.9744 9.14166 23.9744 9.24455C23.9744 9.34744 24.0644 9.42473 24.1546 9.42473ZM24.1288 9.34744H24.0773V9.14151H24.2188C24.2446 9.15454 24.2446 9.1803 24.2446 9.20606C24.2446 9.21879 24.2318 9.24455 24.2061 9.25758L24.2576 9.3476H24.193L24.1673 9.27031H24.1288V9.34744V9.23167H24.1546C24.1673 9.23167 24.1803 9.23167 24.1803 9.21864C24.193 9.21864 24.193 9.20591 24.193 9.19288C24.193 9.19288 24.193 9.18015 24.1803 9.18015C24.1803 9.16712 24.1673 9.18015 24.1546 9.18015H24.1288V9.34744Z" fill="white"/>
<path fill-rule="evenodd" clip-rule="evenodd" d="M9.92665 9.66952C9.68207 9.73377 9.50174 9.77256 9.32157 9.77256C8.9353 9.77256 8.70345 9.52783 8.70345 9.09004C8.70345 9.00003 8.71633 8.90986 8.72921 8.80682L8.78073 8.51087L8.81937 8.26614L9.167 6.15463H9.93953L9.84937 6.61818H10.3387L10.2228 7.39071H9.73344L9.5275 8.6524C9.51462 8.71696 9.51462 8.75545 9.51462 8.78121C9.51462 8.94866 9.59191 9.01291 9.78497 9.01291C9.87513 9.01291 9.95226 9.00018 10.0295 8.98715L9.92665 9.66952ZM12.4246 9.64376C12.1414 9.72104 11.8839 9.75953 11.6005 9.75953C10.7249 9.75953 10.2228 9.29598 10.2228 8.38206C10.2228 7.31328 10.8151 6.54074 11.639 6.54074C12.2956 6.54074 12.7205 6.97853 12.7205 7.66075C12.7205 7.89275 12.6948 8.11157 12.6305 8.42055H11.021C11.0082 8.47208 11.0082 8.49784 11.0082 8.5236C11.0082 8.8841 11.2527 9.06428 11.7163 9.06428C12.0124 9.06428 12.2699 9.00003 12.5532 8.87138L12.4246 9.64376ZM11.9482 7.80259V7.64802C11.9482 7.39056 11.8065 7.24887 11.5619 7.24887C11.3043 7.24887 11.1241 7.44193 11.0468 7.80244L11.9482 7.80259ZM3.74638 9.70801H2.94809L3.41164 6.78547L2.36877 9.70801H1.8152L1.7508 6.79835L1.26149 9.70801H0.476074L1.10692 5.9099H2.2786L2.30436 8.25341L3.08978 5.9099H4.37738L3.74638 9.70801ZM5.69075 8.33054C5.61347 8.31751 5.58771 8.31751 5.53618 8.31751C5.07263 8.31751 4.84093 8.49769 4.84093 8.78106C4.84093 8.97427 4.95686 9.10307 5.13704 9.10307C5.5233 9.10307 5.67772 8.78106 5.69075 8.33054ZM6.33448 9.70801H5.63923L5.65211 9.3863C5.47178 9.63072 5.2272 9.75953 4.80229 9.75953C4.41603 9.75953 4.08128 9.41206 4.08128 8.90986C4.08128 8.76833 4.10704 8.63968 4.14568 8.51087C4.27434 8.03429 4.75077 7.73834 5.48466 7.7253C5.57483 7.7253 5.71636 7.7253 5.84517 7.73834C5.87078 7.63529 5.87078 7.5965 5.87078 7.53225C5.87078 7.32616 5.70348 7.26175 5.33009 7.26175C5.09839 7.26175 4.84078 7.3004 4.6606 7.3648L4.54468 7.39056L4.49316 7.40329L4.60908 6.70804C4.98247 6.59211 5.25281 6.54074 5.54906 6.54074C6.24431 6.54074 6.6177 6.86261 6.6177 7.45481C6.6177 7.60938 6.63058 7.7253 6.57906 8.06005L6.39888 9.16733L6.37312 9.36053L6.36024 9.5151L6.34736 9.61815L6.33448 9.70801ZM16.313 6.64379C16.5447 6.64379 16.7508 6.70819 17.034 6.84973L17.1756 6.02567C17.0983 5.98703 17.0725 5.98703 16.9696 5.94839L16.6479 5.85822C16.5449 5.83246 16.4162 5.81958 16.2744 5.81958C15.8751 5.81958 15.6434 5.83246 15.3989 5.97415C15.2701 6.06431 15.1027 6.18024 14.9224 6.38618L14.8193 6.36041L13.9953 6.93974L14.0341 6.61787H13.1841L12.6822 9.70786H13.4935L13.7895 8.04717C13.7895 8.04717 13.9055 7.81516 13.9569 7.73818C14.1115 7.54497 14.2401 7.54498 14.4074 7.54498H14.472C14.445 7.7412 14.432 7.93911 14.4332 8.13718C14.4332 9.14141 14.9996 9.77241 15.8752 9.77241C16.0942 9.77241 16.2876 9.74665 16.5835 9.66937L16.7253 8.79394C16.4679 8.93547 16.236 8.99988 16.0428 8.99988C15.5665 8.99988 15.283 8.63937 15.283 8.07293C15.2827 7.23599 15.7078 6.64379 16.313 6.64379ZM23.1496 5.9099L22.9696 6.99141C22.7763 6.69531 22.5445 6.55362 22.2355 6.55362C21.8105 6.55362 21.4115 6.7982 21.1667 7.26175V7.24902L20.6518 6.93989L20.7033 6.61803H19.8406L19.3513 9.70801H20.1496L20.4201 8.04732C20.4201 8.04732 20.626 7.81532 20.6776 7.73834C20.8064 7.58377 20.935 7.55786 21.0381 7.54513C20.9481 7.80259 20.8965 8.11157 20.8965 8.45935C20.8965 9.23188 21.2955 9.7468 21.8877 9.7468C22.184 9.7468 22.4157 9.64376 22.6345 9.39903L22.596 9.70801H23.3558L23.9738 5.9099H23.1496ZM22.1584 8.97427C21.8879 8.97427 21.7464 8.76833 21.7464 8.36903C21.7464 7.76379 22.0038 7.32616 22.377 7.32616C22.6603 7.32616 22.8021 7.54513 22.8021 7.93139C22.8021 8.54936 22.5446 8.97427 22.1584 8.97427ZM18.4376 8.33054C18.3603 8.31751 18.3345 8.31751 18.283 8.31751C17.8191 8.31751 17.5874 8.49769 17.5874 8.78106C17.5874 8.97427 17.7035 9.10307 17.8837 9.10307C18.27 9.10307 18.4245 8.78106 18.4376 8.33054ZM19.0813 9.70801H18.373L18.3988 9.3863C18.2186 9.63072 17.9737 9.75953 17.5491 9.75953C17.1498 9.75953 16.8023 9.42479 16.8023 8.90986C16.8023 8.17612 17.3557 7.72545 18.2313 7.72545C18.3216 7.72545 18.463 7.72546 18.5791 7.73849C18.6048 7.63544 18.6179 7.59665 18.6179 7.5324C18.6179 7.32631 18.4504 7.2619 18.0642 7.2619C17.8452 7.2619 17.5749 7.30055 17.3947 7.36495L17.2916 7.39071L17.2401 7.40344L17.3559 6.70819C17.7294 6.59226 17.9999 6.54089 18.2959 6.54089C18.9911 6.54089 19.3516 6.86276 19.3516 7.45496C19.3516 7.60953 19.3774 7.72545 19.3131 8.0602L19.1457 9.16748L19.1199 9.36069L19.0942 9.51525L19.0814 9.6183V9.70801H19.0813ZM8.02108 7.27463C8.17565 7.27463 8.39447 7.28752 8.62632 7.32616L8.74224 6.60515C8.51039 6.57938 8.20141 6.54074 8.02108 6.54074C7.11989 6.54074 6.82379 7.03005 6.82379 7.5965C6.82379 7.97004 6.99109 8.24023 7.42888 8.44616C7.75074 8.60073 7.80226 8.62634 7.80226 8.76818C7.80226 8.96108 7.63497 9.07716 7.32583 9.07716C7.08125 9.07716 6.8494 9.03837 6.59194 8.94835L6.50177 9.65633L6.5145 9.66937L6.66907 9.69513C6.72059 9.70786 6.785 9.72089 6.87516 9.73362C7.06822 9.74665 7.23567 9.75938 7.33871 9.75938C8.24005 9.75938 8.61344 9.41191 8.61344 8.72938C8.61344 8.30463 8.40735 8.04717 8.0082 7.86699C7.66057 7.71227 7.62193 7.68681 7.62193 7.54498C7.62193 7.40344 7.7765 7.27463 8.02108 7.27463Z" fill="#1B3771"/>
<path fill-rule="evenodd" clip-rule="evenodd" d="M17.3949 5.78095L17.2531 6.605C16.9698 6.46332 16.7638 6.39907 16.5321 6.39907C15.9268 6.39907 15.5021 6.99127 15.5021 7.82821C15.5021 8.40768 15.7853 8.75516 16.2619 8.75516C16.4548 8.75516 16.6866 8.6909 16.9441 8.56225L16.8026 9.42464C16.5063 9.50193 16.3132 9.54072 16.0943 9.54072C15.2188 9.54072 14.678 8.90972 14.678 7.89276C14.678 6.54075 15.4248 5.58789 16.4934 5.58789C16.635 5.58789 16.7636 5.60077 16.8667 5.62653L17.1887 5.70382C17.2919 5.74246 17.3176 5.75534 17.3949 5.78095ZM14.7939 6.34754H14.7167C14.4465 6.34754 14.2919 6.47635 14.0472 6.84958L14.1244 6.37315H13.3904L12.8885 9.46329H13.6998C13.9958 7.57059 14.0731 7.24873 14.4593 7.24873H14.5109C14.5882 6.87535 14.691 6.60485 14.8198 6.36027L14.7939 6.34754ZM10.1331 9.42464C9.91431 9.50193 9.73398 9.52769 9.5538 9.52769C9.14178 9.52769 8.90992 9.29599 8.90992 8.84547C8.90992 8.76819 8.9228 8.66529 8.93569 8.57498L8.98721 8.266L9.02585 8.02157L9.37347 5.90975H10.1718L10.0816 6.3733H10.4936L10.3906 7.13296H9.97856L9.75974 8.42056C9.74686 8.47209 9.74686 8.51088 9.74686 8.54937C9.74686 8.70394 9.82414 8.76834 10.0172 8.76834C10.1074 8.76834 10.1845 8.76834 10.236 8.74258L10.1331 9.42464ZM7.03011 7.35178C7.03011 7.73819 7.21029 8.00838 7.6352 8.21447C7.96994 8.36904 8.02147 8.42041 8.02147 8.54922C8.02147 8.74243 7.87978 8.83244 7.55791 8.83244C7.31333 8.83244 7.09436 8.79395 6.8369 8.71667L6.72098 9.42464L6.75962 9.43768L6.90131 9.46344C6.95268 9.47617 7.01723 9.4892 7.12013 9.4892C7.3003 9.51496 7.45487 9.51496 7.55791 9.51496C8.40758 9.51496 8.80688 9.19295 8.80688 8.48497C8.80688 8.05991 8.63958 7.81517 8.24044 7.62227C7.89281 7.4677 7.85417 7.42921 7.85417 7.28752C7.85417 7.12023 7.99586 7.04294 8.25332 7.04294C8.40788 7.04294 8.6267 7.05582 8.83279 7.08159L8.94857 6.37346C8.74263 6.33481 8.42076 6.30905 8.24044 6.30905C7.3391 6.3089 7.01723 6.78533 7.03011 7.35178ZM23.5623 9.46344H22.8025L22.8413 9.16718C22.6223 9.39888 22.3905 9.50193 22.0942 9.50193C21.502 9.50193 21.1157 9.00004 21.1157 8.22751C21.1157 7.19736 21.721 6.32178 22.429 6.32178C22.751 6.32178 22.9827 6.46347 23.2018 6.74669L23.382 5.66517H24.1803L23.5623 9.46344ZM22.3776 8.74243C22.7511 8.74243 23.0086 8.30464 23.0086 7.6994C23.0086 7.30025 22.8667 7.09416 22.5835 7.09416C22.223 7.09416 21.9528 7.51907 21.9528 8.12431C21.9528 8.53649 22.0944 8.74243 22.3776 8.74243ZM12.6051 9.39888C12.3218 9.4892 12.0643 9.52769 11.7682 9.52769C10.8669 9.52769 10.4033 9.05141 10.4033 8.13719C10.4033 7.08143 10.9957 6.29602 11.8068 6.29602C12.4763 6.29602 12.9011 6.73381 12.9011 7.41618C12.9011 7.64803 12.8753 7.867 12.798 8.18871H11.2018C11.1889 8.22751 11.1889 8.25327 11.1889 8.27903C11.1889 8.63953 11.4336 8.81971 11.897 8.81971C12.1931 8.81971 12.4506 8.76819 12.7339 8.6265L12.6051 9.39888ZM12.1545 7.55771V7.4033C12.1545 7.14584 12.0128 7.00415 11.7682 7.00415C11.5107 7.00415 11.3304 7.19736 11.2531 7.55771H12.1545ZM3.95286 9.46344H3.15457L3.61812 6.5406L2.57524 9.46344H2.02153L1.95712 6.56636L1.46796 9.46344H0.721191L1.35204 5.66517H2.51084L2.54948 8.02142L3.32186 5.66517H4.58371L3.95286 9.46344ZM5.9486 8.08567C5.87131 8.08567 5.83267 8.07294 5.76827 8.07294C5.3176 8.07294 5.0859 8.24024 5.0859 8.54922C5.0859 8.74243 5.18894 8.8582 5.36912 8.8582C5.70387 8.8582 5.93572 8.54922 5.9486 8.08567ZM6.5408 9.46344H5.87116L5.88404 9.14142C5.67795 9.39888 5.40761 9.51496 5.03422 9.51496C4.59644 9.51496 4.30033 9.18022 4.30033 8.67802C4.30033 7.91852 4.81525 7.48073 5.71659 7.48073C5.80676 7.48073 5.92268 7.49361 6.05134 7.50634C6.0771 7.40345 6.0771 7.36481 6.0771 7.31329C6.0771 7.10735 5.93541 7.03006 5.56203 7.03006C5.33033 7.03006 5.07272 7.05583 4.89254 7.10735L4.77661 7.14599L4.69933 7.15887L4.81525 6.46362C5.2144 6.34769 5.48474 6.30905 5.781 6.30905C6.47625 6.30905 6.84963 6.61804 6.84963 7.21024C6.84963 7.36481 6.83675 7.48073 6.78523 7.82836L6.6049 8.92291L6.57914 9.11581L6.56626 9.27038L6.55338 9.38646L6.5408 9.46344ZM18.6954 8.08567C18.6051 8.08567 18.5666 8.07294 18.5152 8.07294C18.0517 8.07294 17.8197 8.24024 17.8197 8.54922C17.8197 8.74243 17.9357 8.8582 18.1159 8.8582C18.4379 8.8582 18.6824 8.54922 18.6954 8.08567ZM19.2876 9.46344H18.6181L18.6308 9.14142C18.4249 9.39888 18.1546 9.51496 17.7812 9.51496C17.3434 9.51496 17.0471 9.18022 17.0471 8.67802C17.0471 7.91852 17.5621 7.48073 18.4634 7.48073C18.5537 7.48073 18.6696 7.49361 18.7854 7.50634C18.8112 7.40345 18.8242 7.36481 18.8242 7.31329C18.8242 7.10735 18.6824 7.03006 18.3093 7.03006C18.0773 7.03006 17.8071 7.05583 17.6268 7.10735L17.5237 7.14599L17.4464 7.15887L17.5622 6.46362C17.9615 6.34769 18.2317 6.30905 18.5279 6.30905C19.2232 6.30905 19.5837 6.61804 19.5837 7.21024C19.5837 7.36481 19.5837 7.48073 19.5195 7.82836L19.352 8.92291L19.3262 9.11581L19.3005 9.27038L19.2878 9.38646L19.2876 9.46344ZM21.4506 6.34754H21.3734C21.1032 6.34754 20.9486 6.47635 20.7039 6.84958L20.7811 6.37315H20.0471L19.5578 9.46329H20.3561C20.6523 7.57059 20.7296 7.24873 21.1159 7.24873H21.1674C21.2447 6.87535 21.3476 6.60485 21.4764 6.36027L21.4506 6.34754Z" fill="white"/>
</svg>
