<svg width="57" height="15" viewBox="0 0 57 15" fill="none" xmlns="http://www.w3.org/2000/svg">
<path d="M6.76916 0.000610473H2.38142C2.23617 0.000519048 2.09565 0.0521977 1.9852 0.146335C1.87474 0.240472 1.80161 0.370878 1.77898 0.514056L0.00438433 11.7413C-0.00377404 11.7934 -0.000519616 11.8467 0.0139219 11.8974C0.0283635 11.9481 0.0536493 11.9951 0.0880395 12.0352C0.12243 12.0752 0.165107 12.1073 0.213132 12.1293C0.261157 12.1513 0.313389 12.1627 0.366233 12.1626H2.46098C2.60633 12.1627 2.74692 12.1109 2.85739 12.0166C2.96786 11.9224 3.04093 11.7918 3.06342 11.6485L3.54203 8.62035C3.56451 8.47716 3.63749 8.34669 3.74782 8.25244C3.85815 8.15818 3.99859 8.10635 4.14383 8.10626H5.53284C8.42314 8.10626 10.0912 6.71061 10.5269 3.94492C10.7232 2.73493 10.5352 1.78422 9.96741 1.11841C9.3438 0.387295 8.23773 0.000610473 6.76916 0.000610473ZM7.27536 4.10113C7.03541 5.6722 5.83246 5.6722 4.66928 5.6722H4.00717L4.47168 2.73813C4.48528 2.65229 4.52913 2.57411 4.59534 2.51766C4.66156 2.46121 4.74579 2.43019 4.83288 2.43019H5.13635C5.9287 2.43019 6.67613 2.43019 7.06236 2.8809C7.29269 3.14978 7.36326 3.54927 7.27536 4.10113ZM19.8849 4.05055H17.7837C17.6966 4.05056 17.6124 4.08157 17.5462 4.13802C17.48 4.19447 17.4361 4.27265 17.4225 4.35849L17.3295 4.94492L17.1826 4.73237C16.7277 4.0736 15.7134 3.85337 14.701 3.85337C12.3791 3.85337 10.396 5.60818 10.0098 8.06977C9.80895 9.29768 10.0944 10.4718 10.7925 11.2906C11.4328 12.0435 12.3489 12.3572 13.439 12.3572C15.3098 12.3572 16.3472 11.1568 16.3472 11.1568L16.2536 11.7394C16.2452 11.7915 16.2483 11.8448 16.2626 11.8956C16.2768 11.9464 16.302 11.9935 16.3363 12.0336C16.3705 12.0738 16.4131 12.1061 16.4611 12.1282C16.5091 12.1504 16.5613 12.1619 16.6141 12.162H18.5068C18.6521 12.162 18.7927 12.1103 18.9032 12.016C19.0137 11.9217 19.0867 11.7912 19.1092 11.6479L20.2448 4.47181C20.2532 4.41984 20.2501 4.36667 20.2359 4.31599C20.2216 4.26531 20.1965 4.21832 20.1623 4.17827C20.1281 4.13821 20.0856 4.10605 20.0377 4.084C19.9898 4.06195 19.9376 4.05054 19.8849 4.05055ZM16.9561 8.13123C16.7534 9.32905 15.8006 10.1332 14.5855 10.1332C13.9753 10.1332 13.4877 9.93789 13.1747 9.56785C12.8641 9.20037 12.7461 8.67732 12.8449 8.09474C13.0341 6.90715 14.0029 6.07681 15.1995 6.07681C15.7961 6.07681 16.2812 6.27463 16.6007 6.64787C16.9208 7.02495 17.0478 7.5512 16.9561 8.13123ZM31.0753 4.05055H28.9638C28.8643 4.05071 28.7662 4.07511 28.6782 4.12163C28.5902 4.16815 28.515 4.23539 28.4589 4.31752L25.5468 8.59794L24.3124 4.48461C24.2745 4.35916 24.1972 4.24921 24.0918 4.17104C23.9864 4.09286 23.8586 4.05062 23.7273 4.05055H21.6524C21.5942 4.0504 21.5368 4.06413 21.4849 4.0906C21.4331 4.11707 21.3883 4.15551 21.3543 4.20273C21.3204 4.24995 21.2982 4.30458 21.2897 4.36208C21.2812 4.41957 21.2865 4.47826 21.3053 4.53327L23.6311 11.3438L21.4446 14.4238C21.4057 14.4784 21.3827 14.5426 21.3779 14.6095C21.3732 14.6763 21.387 14.7431 21.4178 14.8026C21.4487 14.8621 21.4953 14.912 21.5526 14.9468C21.6099 14.9816 21.6758 15 21.7429 15H23.8518C23.9502 15.0001 24.0472 14.9764 24.1345 14.9309C24.2218 14.8855 24.2967 14.8195 24.3528 14.7388L31.3755 4.62354C31.4136 4.56881 31.4359 4.50473 31.4401 4.43825C31.4442 4.37176 31.4301 4.30541 31.3992 4.24638C31.3682 4.18735 31.3217 4.13789 31.2646 4.10337C31.2075 4.06885 31.142 4.05059 31.0753 4.05055Z" fill="#253B80"/>
<path d="M38.0661 0.00064016H33.6778C33.5326 0.000701263 33.3923 0.0524488 33.2819 0.146572C33.1716 0.240696 33.0986 0.371016 33.076 0.514085L31.3014 11.7414C31.2931 11.7934 31.2963 11.8466 31.3106 11.8972C31.3249 11.9479 31.3501 11.9949 31.3843 12.0349C31.4186 12.075 31.4612 12.1071 31.5091 12.1292C31.557 12.1512 31.6092 12.1626 31.6619 12.1626H33.9139C34.0155 12.1625 34.1137 12.1262 34.1908 12.0602C34.268 11.9943 34.319 11.903 34.3347 11.8028L34.8384 8.62037C34.8608 8.47719 34.9338 8.34672 35.0442 8.25247C35.1545 8.15821 35.2949 8.10637 35.4402 8.10629H36.8285C39.7195 8.10629 41.3869 6.71064 41.8232 3.94495C42.0202 2.73496 41.8309 1.78425 41.2631 1.11844C40.6401 0.387324 39.5347 0.00064016 38.0661 0.00064016ZM38.5723 4.10116C38.333 5.67223 37.1301 5.67222 35.9663 5.67222H35.3048L35.7699 2.73816C35.7833 2.65232 35.827 2.57408 35.8931 2.51759C35.9592 2.46111 36.0435 2.43011 36.1305 2.43022H36.434C37.2257 2.43022 37.9738 2.43022 38.36 2.88093C38.5903 3.14981 38.6602 3.5493 38.5723 4.10116ZM51.1812 4.05058H49.0814C48.9943 4.05034 48.91 4.08129 48.8438 4.1378C48.7777 4.19431 48.734 4.27262 48.7208 4.35852L48.6278 4.94495L48.4802 4.7324C48.0253 4.07363 47.0116 3.8534 45.9992 3.8534C43.6774 3.8534 41.6949 5.60821 41.3087 8.0698C41.1085 9.29771 41.3927 10.4719 42.0907 11.2907C42.7323 12.0436 43.6472 12.3573 44.7372 12.3573C46.6081 12.3573 47.6455 11.1569 47.6455 11.1569L47.5518 11.7395C47.5435 11.7917 47.5466 11.845 47.5609 11.8959C47.5753 11.9468 47.6005 11.994 47.6349 12.0341C47.6693 12.0743 47.7121 12.1066 47.7602 12.1286C47.8084 12.1507 47.8607 12.1621 47.9137 12.162H49.8057C49.9509 12.1619 50.0914 12.1101 50.2017 12.0158C50.312 11.9216 50.385 11.7911 50.4075 11.6479L51.5437 4.47184C51.5518 4.4197 51.5484 4.36645 51.5339 4.31572C51.5194 4.265 51.494 4.21802 51.4596 4.178C51.4252 4.13797 51.3825 4.10586 51.3344 4.08387C51.2864 4.06188 51.2341 4.05052 51.1812 4.05058ZM48.2524 8.13126C48.051 9.32908 47.097 10.1332 45.8818 10.1332C45.273 10.1332 44.7841 9.93792 44.471 9.56788C44.1605 9.2004 44.0437 8.67735 44.1412 8.09477C44.3318 6.90718 45.2993 6.07684 46.4958 6.07684C47.0925 6.07684 47.5775 6.27466 47.897 6.6479C48.2184 7.02498 48.3455 7.55123 48.2524 8.13126ZM53.6584 0.308579L51.8575 11.7414C51.8492 11.7934 51.8524 11.8466 51.8667 11.8972C51.881 11.9479 51.9062 11.9949 51.9404 12.0349C51.9747 12.075 52.0173 12.1071 52.0652 12.1292C52.1131 12.1512 52.1653 12.1626 52.218 12.1626H54.0286C54.3295 12.1626 54.5848 11.945 54.631 11.6485L56.4069 0.421896C56.4151 0.369856 56.412 0.316652 56.3977 0.265941C56.3833 0.21523 56.3582 0.168214 56.3239 0.128126C56.2897 0.0880383 56.2471 0.0558286 56.1992 0.0337111C56.1513 0.0115937 56.0991 9.32394e-05 56.0463 0H54.0189C53.9319 0.000307541 53.8478 0.0315294 53.7817 0.0880728C53.7157 0.144616 53.6719 0.222786 53.6584 0.308579Z" fill="#179BD7"/>
</svg>
