<svg width="20" height="20" viewBox="0 0 20 20" fill="none" xmlns="http://www.w3.org/2000/svg">
<g clip-path="url(#clip0_80_666)">
<path d="M14.0661 18.7542H5.93281C5.52693 18.7547 5.13634 18.5994 4.84169 18.3203C4.54704 18.0411 4.37084 17.6595 4.34948 17.2542L3.63281 4.4375H16.3661L15.6495 17.2542C15.6281 17.6595 15.4519 18.0411 15.1573 18.3203C14.8626 18.5994 14.472 18.7547 14.0661 18.7542Z" stroke="#595959" stroke-miterlimit="10"/>
<path d="M2.03906 4.4375H17.9557" stroke="#595959" stroke-miterlimit="10"/>
<path d="M8.40807 1.25H11.5914C12.0135 1.25 12.4184 1.41769 12.7169 1.71619C13.0154 2.01468 13.1831 2.41953 13.1831 2.84167V4.43333H6.81641V2.84167C6.81641 2.41953 6.9841 2.01468 7.28259 1.71619C7.58109 1.41769 7.98594 1.25 8.40807 1.25Z" stroke="#595959" stroke-miterlimit="10"/>
<path d="M10 6.8125V16.3625" stroke="#595959" stroke-miterlimit="10"/>
<path d="M13.1836 6.8125V16.3625" stroke="#595959" stroke-miterlimit="10"/>
<path d="M6.81641 6.8125V16.3625" stroke="#595959" stroke-miterlimit="10"/>
</g>
<defs>
<clipPath id="clip0_80_666">
<rect width="20" height="20" fill="white"/>
</clipPath>
</defs>
</svg>
