<svg width="32" height="32" viewBox="0 0 32 32" fill="none" xmlns="http://www.w3.org/2000/svg">
<path d="M16.3333 29.6667C23.6971 29.6667 29.6667 23.6971 29.6667 16.3333C29.6667 8.96954 23.6971 3 16.3333 3C8.96954 3 3 8.96954 3 16.3333C3 23.6971 8.96954 29.6667 16.3333 29.6667Z" stroke="#E10174" stroke-width="2" stroke-linecap="round" stroke-linejoin="round"/>
<path d="M3.67188 17L11.0052 19.6667L9.67188 24.3333L11.0052 28.3333" stroke="#E10174" stroke-width="2" stroke-linecap="round" stroke-linejoin="round"/>
<path d="M23 27.6667L22.3333 24.3333L19 23V18.3333L23 17L29 17.6667" stroke="#E10174" stroke-width="2" stroke-linecap="round" stroke-linejoin="round"/>
<path d="M25.6693 7.66406L25.0026 9.66406L20.3359 10.3307V14.3307L23.6693 12.9974H26.3359L29.0026 14.3307" stroke="#E10174" stroke-width="2" stroke-linecap="round" stroke-linejoin="round"/>
<path d="M3.67188 14.332L7.00521 11.6654L10.3385 10.9987L13.0052 6.9987L11.6719 4.33203" stroke="#E10174" stroke-width="2" stroke-linecap="round" stroke-linejoin="round"/>
</svg>
