<svg width="40" height="40" viewBox="0 0 40 40" fill="none" xmlns="http://www.w3.org/2000/svg">
    <path d="M5.68296 18.3359H8.8663V31.0693H5.68296C4.85012 31.0695 4.05036 30.7432 3.45525 30.1606C2.86014 29.5779 2.51707 28.7853 2.49963 27.9526V21.6693C2.47932 21.2388 2.54664 20.8087 2.6975 20.405C2.84836 20.0012 3.07962 19.6324 3.37727 19.3207C3.67492 19.009 4.03275 18.761 4.42908 18.5918C4.82542 18.4225 5.25199 18.3355 5.68296 18.3359Z" stroke="black" stroke-width="2.5" stroke-miterlimit="10"/>
    <path d="M31.1328 18.3359H34.3161C34.7471 18.3355 35.1737 18.4225 35.57 18.5918C35.9664 18.761 36.3242 19.009 36.6218 19.3207C36.9195 19.6324 37.1508 20.0012 37.3016 20.405C37.4525 20.8087 37.5198 21.2388 37.4995 21.6693V28.0359C37.4995 28.8802 37.1641 29.6899 36.5671 30.2869C35.9701 30.8839 35.1604 31.2193 34.3161 31.2193H31.1328V18.3359Z" stroke="black" stroke-width="2.5" stroke-miterlimit="10"/>
    <path d="M32.7333 31.1328C32.7333 32.8214 32.0626 34.4407 30.8686 35.6347C29.6746 36.8287 28.0552 37.4995 26.3667 37.4995H20" stroke="black" stroke-width="2.5" stroke-miterlimit="10"/>
    <path d="M7.2666 18.4167V15.2333C7.2666 11.8562 8.60815 8.61747 10.9961 6.22951C13.3841 3.84154 16.6228 2.5 19.9999 2.5C23.377 2.5 26.6158 3.84154 29.0038 6.22951C31.3917 8.61747 32.7333 11.8562 32.7333 15.2333V18.4167" stroke="black" stroke-width="2.5" stroke-miterlimit="10"/>
</svg>
