<svg width="32" height="32" viewBox="0 0 32 32" fill="none" xmlns="http://www.w3.org/2000/svg">
<path d="M13.3359 16.0013H6.66927C5.93289 16.0013 5.33594 15.4043 5.33594 14.668V10.0013C5.33594 9.26492 5.93289 8.66797 6.66927 8.66797H12.0026C12.739 8.66797 13.3359 9.26492 13.3359 10.0013V16.0013ZM13.3359 16.0013C13.3359 19.3346 12.0026 21.3346 8.0026 23.3346" stroke="black" stroke-opacity="0.8" stroke-width="2" stroke-linecap="round"/>
<path d="M26.6641 16.0013H19.9974C19.261 16.0013 18.6641 15.4043 18.6641 14.668V10.0013C18.6641 9.26492 19.261 8.66797 19.9974 8.66797H25.3307C26.0671 8.66797 26.6641 9.26492 26.6641 10.0013V16.0013ZM26.6641 16.0013C26.6641 19.3346 25.3307 21.3346 21.3307 23.3346" stroke="black" stroke-opacity="0.8" stroke-width="2" stroke-linecap="round"/>
</svg>
