<svg width="32" height="32" viewBox="0 0 32 32" fill="none" xmlns="http://www.w3.org/2000/svg">
<path d="M14.031 3.49694C15.0888 2.33543 16.9164 2.33543 17.9742 3.49694L19.3345 4.99058C19.8691 5.5776 20.6374 5.89587 21.4305 5.85881L23.4486 5.7645C25.0178 5.69115 26.3101 6.98346 26.2368 8.55275L26.1425 10.5708C26.1054 11.3639 26.4237 12.1322 27.0107 12.6668L28.5044 14.0271C29.6659 15.0849 29.6659 16.9125 28.5044 17.9703L27.0107 19.3306C26.4237 19.8652 26.1054 20.6335 26.1425 21.4266L26.2368 23.4447C26.3101 25.0139 25.0178 26.3062 23.4486 26.2329L21.4305 26.1386C20.6374 26.1015 19.8691 26.4198 19.3345 27.0068L17.9742 28.5005C16.9164 29.662 15.0888 29.662 14.031 28.5005L12.6708 27.0068C12.1361 26.4198 11.3678 26.1015 10.5747 26.1386L8.55665 26.2329C6.98737 26.3062 5.69506 25.0139 5.7684 23.4447L5.86271 21.4266C5.89978 20.6335 5.58151 19.8652 4.99449 19.3306L3.50085 17.9703C2.33934 16.9125 2.33934 15.0849 3.50085 14.0271L4.99449 12.6668C5.58151 12.1322 5.89978 11.3639 5.86271 10.5708L5.7684 8.55274C5.69506 6.98346 6.98737 5.69116 8.55665 5.7645L10.5747 5.85881C11.3678 5.89587 12.1361 5.5776 12.6708 4.99058L14.031 3.49694Z" stroke="#E10174" stroke-width="2"/>
<path d="M12 16L14.6667 18.6667L20 13.3333" stroke="#E10174" stroke-width="2" stroke-linecap="round" stroke-linejoin="round"/>
</svg>
