<svg width="32" height="32" viewBox="0 0 32 32" fill="none" xmlns="http://www.w3.org/2000/svg">
<path d="M25.9473 23.5488V25.085H19.0547V23.5488H25.9473ZM29.5186 19.9775V21.5137H19.0547V19.9775H29.5186ZM29.5186 16.4062V17.9424H19.0547V16.4062H29.5186Z" fill="#50565D" stroke="white" stroke-width="0.25" stroke-linejoin="round"/>
<path d="M21.0928 10.2852L21.1211 10.3438L21.1865 10.3535L27.7148 11.3018L27.4961 12.8232L20.9648 11.873L20.1016 11.7471L19.7148 10.9639L17.2549 5.97949L17.1426 5.75195L17.0312 5.97949L14.5713 10.9639L14.1836 11.7471L13.3203 11.873L7.81934 12.6719L7.56934 12.708L7.75 12.8848L11.7305 16.7666L12.3555 17.374L12.208 18.2363L11.2686 23.7148L11.2256 23.9639L11.4502 23.8467L15.2324 21.8574V23.5918L9.18457 26.7715L10.6943 17.9766L10.7061 17.9121L10.6582 17.8662L4.26758 11.6357L13.0996 10.3535L13.1641 10.3438L13.1934 10.2852L17.1426 2.28223L21.0928 10.2852Z" fill="#50565D" stroke="white" stroke-width="0.25"/>
</svg>
